<?xml version="1.0" encoding="UTF-8"?>
<svg width="451px" height="540px" viewBox="0 0 451 540" version="1.1" xmlns="http://www.w3.org/2000/svg" xmlns:xlink="http://www.w3.org/1999/xlink">
    <!-- Generator: Sketch 52.5 (67469) - http://www.bohemiancoding.com/sketch -->
    <title>africa-kenya</title>
    <desc>Created with Sketch.</desc>
    <defs>
        <path d="M3.91007547,119.823446 L9.52437672,143.986846 L1.50270006,169.028789 L9.52437672,198.761348 L27.1219547,209.019089 L28.9103251,222.259685 L44.5933585,233.6405 L64.006751,246.596587 L90.9139249,236.588326 L95.7383126,243.805415 L137.654231,227.747829 L150.187816,246.510289 L162.447493,243.805415 L179.219301,255.338869 L169.723169,290.071825 L185.413805,308.619489 L200.585768,340.708624 L198.280183,349.304737 L206.984417,366.95693 L198.280183,374.763981 L187.72303,411.911123 L208.532391,447.057782 L208.532391,476.875598 L218.856025,492.82956 L228.595253,514.475625 L228.595253,527.066091 L237.652518,539.147935 L255.37754,535.5225 L269.287908,532.844037 C278.92844,534.277064 284.440258,534.277064 285.823362,532.844037 C287.898018,530.694497 318.761999,507.804857 318.434971,500.882322 C318.107943,493.959788 322.711969,471.449685 323.977008,472.432008 C324.820367,473.08689 330.929375,468.445283 342.304034,458.507186 L336.087714,428.834646 L358.987287,406.42724 L378.411198,396.000291 L379.442506,357.346188 L370.227397,322.931055 L377.637101,300.208223 L402.348335,266.902245 L430.448917,243.805415 L449.837728,190.430152 L427.829314,196.113351 L407.186916,203.303481 L388.277723,193.883567 L397.085153,187.223043 L386.420713,175.477909 L372.364864,166.518524 C365.834239,151.751365 363.005853,144.240805 363.879707,143.986846 C364.753561,143.732887 360.338463,141.469764 350.634415,137.197477 L350.634415,116.983224 L342.304034,106.407334 L320.050086,55.8354237 L315.461658,42.7690818 L302.430815,46.5465546 C279.800153,43.0162948 269.404733,41.7571372 271.244555,42.7690818 C273.084377,43.7810263 267.795372,40.8038595 255.37754,33.8375813 L242.172664,38.733023 L242.172664,50.2595889 L234.889893,53.3359183 L218.856025,46.5465546 L209.162202,38.733023 L179.219301,31.3914044 L176.737598,26.0554571 L184.309655,16.7068758 L179.219301,6.57484073 L176.737598,2.24454975 C171.617668,0.772379864 168.321786,0.772379864 166.849953,2.24454975 C165.37812,3.71671964 155.646213,5.16014997 137.654231,6.57484073 L108.319093,11.1362847 L95.7383126,16.7068758 L82.8589303,11.1362847 L72.6419038,19.7767406 L62.364604,30.6087769 L52.3625839,42.7690818 L55.4115789,55.8354237 L44.5933585,66.4569898 L26.1297756,79.9321283 L16.1141122,92.445389 L7.90873963,106.407334 L3.91007547,119.823446 Z" id="path-1"></path>
    </defs>
    <g id="africa-kenya" stroke="none" stroke-width="1" fill="none" fill-rule="evenodd">
        <mask id="mask-2" fill="white">
            <use xlink:href="#path-1"></use>
        </mask>
        <use id="Mask" fill="#203A47" xlink:href="#path-1"></use>
        <path d="M336.087714,277.723405 C336.450301,277.732749 337.094565,278.830156 338.020508,281.015625 L340.354492,280.493652 L342.717209,281.75009 L340.368652,283.16748 L337.065839,283.878913 C337.09158,286.284158 337.09158,287.472765 337.065839,287.444732 C337.040098,287.416699 344.884544,292.403995 360.599178,302.40662 L360.025561,305.114438 L373.516735,314.169864 L376.273926,308.91748 L378.164062,301.644043 L379.724121,299.408691 L379.929964,297.828798 L381.884068,295.470069 L383.847656,295.29834 L384.086236,294.091698 L385.807613,291.09456 L382.288661,284.506569 L382.288661,258.12419 L384.086236,254.760509 L387.575536,249.781235 L383.620784,249.781235 L380.806124,247.690757 L375.719479,249.781235 L372.986737,254.128711 L369.221668,252.903992 L366.151275,251.746649 L363.475986,252.366607 L354.458126,246.528368 L350.634415,246.510289 L348.556884,244.646358 L339.402462,244.646358 L337.065839,247.276927 L336.087714,248.179658 L337.065839,250.283711 C337.37614,250.837017 337.712182,251.121899 338.073965,251.138357 C338.435748,251.154815 338.87858,251.564232 339.402462,252.366607 L338.554755,254.128711 L341.834602,259.21615 L344.015657,263.822005 L341.834602,267.835662 L342.304034,269.642266 L340.330347,270.64378 L337.54834,273.484375 C336.212003,276.301051 335.725127,277.714061 336.087714,277.723405 Z" id="Path-2" fill="#BF307D" mask="url(#mask-2)"></path>
    </g>
</svg>