<?xml version="1.0" encoding="UTF-8"?>
<svg width="311px" height="147px" viewBox="0 0 311 147" version="1.1" xmlns="http://www.w3.org/2000/svg" xmlns:xlink="http://www.w3.org/1999/xlink">
    <!-- Generator: Sketch 50.2 (55047) - http://www.bohemiancoding.com/sketch -->
    <title>Artboard Copy</title>
    <desc>Created with Sketch.</desc>
    <defs></defs>
    <g id="Artboard-Copy" stroke="none" stroke-width="1" fill="none" fill-rule="evenodd">
        <path d="M174.154074,38.393135 C170.965233,45.6325451 147.663334,55.3325156 137.671631,45.9638672 C136.396094,45.3250957 135.395508,45.0910645 135.395508,45.0910645 C134.278809,45.123291 133.394627,45.6637445 132.668213,45.3359375 C132.33349,45.1848879 131.931517,45.2175402 132.002441,44.8686523 C132.117343,44.3034351 132.560791,42.9938965 133.011719,41.579834 C132.60376,40.6005859 131.784278,36.3302015 131.472656,35.185791 C131.685246,33.6953242 132.441219,31.3521601 132.653809,27.5195312 C134.567113,21.5576641 140.777535,10.7130375 153.958079,5.81578947 C160.548351,6.88040861 177.342916,31.1537249 174.154074,38.393135 Z M175.893555,12.4677734 L179.520508,7.84375 L181.360352,6.19335938 L183.9729,8.54272461 L185.714844,11.9755859 L182.061768,13.2199707 L177.974365,15.529541 L175.893555,12.4677734 Z" id="acorn-a" fill="#BF317D"></path>
        <path d="M152.990234,2.10742188 C155.1329,1.03812081 158.74488,-0.688108849 162.395996,0.458251953 C166.047112,1.60461276 173.88501,7.92822266 175.424072,10.347168 C176.963135,12.7661133 183.147705,24.359375 183.577148,28.0444336 C184.006592,31.7294922 184.465515,34.9199028 182.174316,37.9335938 C179.145105,40.7999814 172.559881,42.1034877 172.131348,41.2480469 C171.702815,40.392606 174.199374,39.2227539 173.985107,34.7316895 C173.770841,30.240625 166.074721,16.7522841 162.889655,13.8590522 C159.70459,10.9658203 152.933105,6.05322266 151.236572,7.02294922 C149.540039,7.99267578 148.105263,8.72640709 148.105263,8.72640709 C148.105263,8.72640709 150.847569,3.17672294 152.990234,2.10742188 Z" id="acorn-b" fill="#30BABF"></path>
        <path d="M26.1386703,81.8759505 L26.1386703,81.8750823 C40.1961305,81.8750823 50.4751799,92.3655425 50.4751799,106.510003 C50.4751799,120.591823 40.1961305,131.169283 26.1386703,131.169283 C20.0556305,131.169283 14.6555398,129.063012 10.5395701,125.479482 L10.5395701,146.841461 L0.882570053,146.841461 L0.882570053,83.0200013 L7.39017032,83.0200013 L9.20585989,88.7889711 C13.4540701,84.4589807 19.3744203,81.8759505 26.1386703,81.8759505 Z M25.3791607,121.922923 C34.2348901,121.922923 40.7059505,115.364863 40.7059505,106.509133 C40.7059505,97.6534037 34.2348901,91.0953433 25.3791607,91.0953433 C16.5234313,91.0953433 9.99060159,97.715173 9.99060159,106.509133 C9.99060159,115.303093 16.5234313,121.922923 25.3791607,121.922923 Z M83.3768406,82.759 L87.5528406,82.7589987 L87.5528406,91.8809492 L82.4546401,91.8809492 C74.4671703,91.8809492 70.4817005,96.4362693 70.4817005,104.94661 L70.4817005,130 L60.8247005,130 L60.8247005,83.02 L67.3566607,83.02 L68.9905206,89.4327706 C72.3522005,84.9766305 76.9614602,82.759 83.3768406,82.759 Z M115.46418,131.144049 L115.46418,131.143179 C101.09613,131.143179 90.3446703,120.628359 90.3446703,106.509129 C90.3446703,92.3028997 101.09613,81.8750797 115.46418,81.8750797 C129.807,81.8750797 140.58282,92.3655398 140.58282,106.51 C140.58282,120.629229 129.807,131.144049 115.46418,131.144049 Z M115.46418,121.922048 C124.356451,121.922048 130.752691,115.501448 130.752691,106.509128 C130.752691,97.5168078 124.356451,91.0962075 115.46418,91.0962075 C106.571909,91.0962075 100.17654,97.5168078 100.17654,106.509128 C100.17654,115.501448 106.571909,121.922048 115.46418,121.922048 Z M151.81539,75.7407102 L151.81539,65.7783406 L161.79429,65.7783406 L161.79429,75.7407102 L151.81539,75.7407102 Z M140.25918,146.84146 L140.258309,138.00661 L143.617379,138.00661 C148.99572,138.00661 151.91457,135.02599 151.91457,129.64765 L151.91457,83.0208695 L161.57157,83.0208695 L161.57157,130.38193 C161.57157,140.16508 154.89519,146.84146 145.0494,146.84146 L140.25918,146.84146 Z M219.952049,106.62049 L219.950308,106.620493 C219.950308,107.677542 219.863308,108.734592 219.751078,109.791641 L181.619849,109.791641 C182.826539,117.405882 188.307539,122.086482 195.999209,122.086482 C201.612449,122.086482 206.15733,119.491272 208.64118,115.207391 L218.808,115.207391 C215.06874,125.126261 206.491411,131.144051 196.000081,131.144051 C182.266261,131.144051 171.862801,120.542231 171.862801,106.510001 C171.862801,92.4525412 182.24103,81.875081 196.00008,81.875081 C210.380309,81.875081 219.952049,92.9493104 219.952049,106.62049 Z M195.999208,90.5968337 L195.999209,90.5959628 C188.734709,90.5959628 183.443368,94.9772829 181.860838,101.945983 L210.268078,101.945983 C208.535039,94.810243 203.156698,90.5968337 195.999208,90.5968337 Z M251.38254,131.144049 L251.38254,131.144916 C237.38772,131.144916 226.76067,120.492636 226.76067,106.460407 C226.76067,92.4281773 237.36249,81.8759479 251.407771,81.8759479 C263.01792,81.8759479 272.092021,88.9873284 274.701151,99.7657583 L265.131151,99.7657583 C262.659481,94.3621882 257.5056,91.095338 251.38254,91.095338 C242.925269,91.095338 236.591669,97.7769382 236.591669,106.483898 C236.591669,115.190859 243.012269,121.922919 251.38254,121.922919 C257.53083,121.922919 262.51071,118.606479 265.06938,112.89232 L274.81338,112.89232 C272.229481,123.869979 262.98138,131.144049 251.38254,131.144049 Z M305.17899,121.22779 L310.537319,121.227789 L310.537319,129.999999 L303.358949,129.999999 C293.06772,129.999999 286.71672,123.648999 286.71672,113.270769 L286.71672,91.2928297 L278.31426,91.2928297 L278.31426,89.4249396 L294.6546,72.0527802 L296.29803,72.0527802 L296.29803,83.02 L310.27632,83.02 L310.27632,91.2928297 L296.37372,91.2928297 L296.37372,112.509519 C296.37372,118.11058 299.49093,121.22779 305.17899,121.22779 Z M62.2022198,4.99477058 L69.6555096,4.99563878 L69.6555096,51.9756388 L61.8663997,51.9756388 L60.9259299,46.2623489 C56.6707596,50.5671086 50.7356195,53.144919 43.8887198,53.144919 C29.8938997,53.144919 19.4286703,42.5674588 19.4286703,28.4856388 C19.4286703,14.3664094 29.8938997,3.8759492 43.8887198,3.8759492 C50.8147898,3.8759492 56.8082198,6.49203984 61.0729602,10.8698805 L62.2022198,4.99477058 Z M44.6482294,43.8994286 C53.5039588,43.8994286 59.9750193,37.3413682 59.9750193,28.4856388 C59.9750193,19.6299094 53.5039588,13.0718489 44.6482294,13.0718489 C35.7925,13.0718489 29.2596703,19.6916786 29.2596703,28.4856388 C29.2596703,37.2795989 35.7925,43.8994286 44.6482294,43.8994286 Z M104.60254,53.1440495 L104.60254,53.1449163 C90.6077198,53.1449163 79.9806703,42.4926361 79.9806703,28.4604067 C79.9806703,14.4281773 90.5824904,3.87594788 104.627771,3.87594788 C116.23792,3.87594788 125.312021,10.9873284 127.921151,21.7657583 L118.351151,21.7657583 C115.879481,16.3621882 110.7256,13.095338 104.60254,13.095338 C96.1452693,13.095338 89.811669,19.7769382 89.811669,28.4838984 C89.811669,37.1908586 96.2322693,43.922919 104.60254,43.922919 C110.75083,43.922919 115.73071,40.6064794 118.28938,34.8923201 L128.03338,34.8923201 C125.449481,45.8699794 116.20138,53.1440495 104.60254,53.1440495 Z M216.433841,4.759 L220.609841,4.75899867 L220.609841,13.8809492 L215.51164,13.8809492 C207.52417,13.8809492 203.538701,18.4362693 203.538701,26.9466099 L203.538701,52 L193.881701,52 L193.881701,5.02 L200.413661,5.02 L202.047521,11.4327706 C205.409201,6.97663048 210.01846,4.759 216.433841,4.759 Z M253.02517,3.95077058 L253.02517,3.95164143 C264.010661,3.95164143 270.870611,12.1409519 270.870611,23.7119519 L270.870611,52.0000013 L261.213611,52.0000013 L261.213611,25.6764107 C261.213611,17.1434505 257.501321,12.6116208 250.436051,12.6116208 C243.05671,12.6116208 237.816701,18.5476305 237.816701,26.8465604 L237.816701,52 L228.159701,52.0000013 L228.159701,5.02 L234.891761,5.02 L236.767481,11.5754505 C240.32317,6.83742995 246.12346,3.95077058 253.02517,3.95077058 Z" id="letteres" fill="#FFFFFF"></path>
    </g>
</svg>